<?xml version="1.0" standalone="no"?>
<svg version="1.0" xmlns="http://www.w3.org/2000/svg"
 width="1920.000000pt" height="1080.000000pt" viewBox="0 0 1920.000000 1080.000000"
 preserveAspectRatio="xMidYMid meet">

<g transform="translate(0.000000,1080.000000) scale(0.100000,-0.100000)"
fill="#000000" stroke="none">
<path d="M16120 8704 c-8 -3 -44 -14 -80 -26 -79 -25 -182 -76 -275 -135 -77
-50 -256 -226 -295 -291 -14 -23 -33 -44 -42 -47 -28 -10 -61 -95 -49 -122 13
-28 -3 -69 -36 -96 -25 -20 -42 -99 -25 -120 5 -6 10 -55 11 -107 1 -107 7
-159 28 -244 19 -78 83 -204 123 -241 58 -55 80 -113 80 -213 0 -56 6 -103 15
-124 23 -57 55 -263 55 -359 0 -68 3 -89 14 -89 10 0 15 -26 20 -98 4 -54 11
-123 17 -153 5 -30 16 -115 24 -189 7 -74 19 -182 25 -240 11 -105 50 -367 70
-470 6 -30 15 -80 20 -110 25 -149 92 -346 162 -478 64 -122 72 -131 47 -51
-37 117 -77 292 -99 434 -12 77 -25 163 -30 190 -16 86 -78 527 -85 600 -17
180 -56 543 -66 606 -6 39 -8 74 -4 77 9 9 65 -54 65 -72 0 -25 96 -268 148
-377 57 -116 135 -241 175 -278 l25 -23 -55 -55 c-110 -110 -134 -225 -79
-382 14 -41 26 -91 26 -111 0 -54 39 -279 55 -317 8 -18 19 -33 24 -33 13 0
14 6 1 49 -13 47 -48 216 -60 292 -5 35 -19 109 -30 164 -11 55 -20 114 -20
132 0 57 44 139 106 195 32 29 86 80 121 112 l63 59 0 -31 c0 -18 5 -32 10
-32 14 0 13 71 -2 128 l-11 46 99 93 c54 51 103 93 108 93 5 0 -28 -38 -73
-85 l-83 -85 4 -58 c2 -31 14 -77 26 -102 11 -25 26 -76 32 -113 22 -140 67
-218 155 -268 50 -28 53 -32 59 -80 13 -97 95 -323 130 -357 25 -25 49 -25 28
0 -13 16 -38 140 -47 228 -3 36 -8 82 -11 103 -8 53 11 46 25 -9 26 -101 91
-202 165 -255 51 -37 64 -37 33 1 -44 51 -83 186 -101 346 -7 54 -8 51 68 134
55 60 140 197 250 402 168 315 271 466 337 492 39 16 42 15 69 -4 26 -19 29
-19 32 -3 2 12 6 14 11 6 4 -7 -16 -30 -52 -60 -33 -26 -60 -51 -60 -55 -2
-19 23 -5 68 37 l48 45 194 0 c204 -1 320 -14 380 -45 l34 -18 -47 -16 c-108
-37 -194 -133 -238 -267 -28 -84 -20 -94 10 -12 45 124 106 200 195 244 48 23
105 32 105 16 0 -4 16 -25 36 -47 55 -62 95 -127 177 -290 181 -360 393 -869
562 -1345 42 -118 85 -237 95 -264 11 -27 18 -52 15 -54 -3 -3 -49 7 -102 21
-330 89 -564 100 -751 35 -60 -21 -109 -54 -98 -66 3 -3 14 2 23 11 49 43 203
77 353 77 126 0 279 -25 464 -74 123 -34 155 -51 156 -83 0 -22 -14 -19 -345
52 -225 48 -474 44 -579 -10 -46 -24 -59 -18 -98 48 -88 147 -100 182 -96 260
4 82 26 130 119 269 72 106 109 172 109 195 0 10 -17 -14 -39 -52 -63 -117
-116 -193 -127 -182 -4 3 -15 55 -24 114 -25 150 -31 173 -42 173 -6 0 -8 -14
-4 -32 17 -95 27 -180 22 -185 -3 -3 -16 7 -29 23 -14 16 -61 54 -105 84 -113
78 -117 86 -108 267 3 82 19 261 35 398 26 229 29 266 17 254 -4 -3 -40 -310
-67 -559 -14 -131 -11 -247 6 -283 8 -18 41 -50 72 -72 32 -22 88 -69 125
-104 80 -75 82 -88 38 -184 -62 -131 -52 -199 57 -381 69 -116 74 -142 30
-170 -12 -8 -166 -68 -342 -134 -176 -66 -414 -157 -528 -202 -192 -76 -212
-82 -250 -74 -28 6 -45 17 -53 32 -6 13 -56 69 -110 126 -322 332 -380 405
-410 505 -18 61 -73 362 -74 399 0 41 -194 364 -226 376 -20 8 -17 -3 10 -38
38 -51 104 -163 150 -255 31 -61 47 -109 56 -166 51 -332 65 -380 139 -476 27
-35 132 -149 234 -254 171 -174 198 -205 181 -205 -13 0 -181 95 -214 121 -56
43 -95 49 -218 33 -59 -7 -115 -14 -124 -14 -10 0 -17 -6 -15 -12 1 -10 -24
-14 -95 -16 -128 -4 -130 -2 -146 144 -18 157 -31 438 -32 664 0 135 -3 190
-10 180 -7 -9 -10 -108 -8 -260 2 -297 13 -484 33 -608 16 -97 14 -132 -10
-132 -15 0 -25 -22 -25 -54 0 -24 38 -65 85 -89 l30 -16 -35 -1 c-52 0 -108
-18 -122 -39 -10 -14 -38 -20 -137 -29 -140 -13 -144 -12 -163 50 -17 56 -53
81 -170 118 -57 18 -112 40 -123 50 -33 28 -44 32 -65 20 -52 -28 -67 -124
-25 -166 14 -14 25 -29 25 -33 0 -5 -24 -11 -54 -13 -59 -5 -124 -44 -134 -80
-2 -10 -26 -30 -53 -43 -69 -36 -85 -75 -54 -134 17 -33 59 -51 121 -51 l44 0
0 -37 c0 -32 6 -42 33 -60 17 -12 49 -29 70 -38 25 -10 37 -22 37 -35 0 -11 5
-28 11 -38 9 -15 0 -36 -49 -117 -33 -55 -77 -134 -97 -175 -21 -41 -53 -97
-71 -125 -18 -27 -45 -77 -61 -110 -17 -33 -66 -127 -110 -210 -113 -213 -310
-614 -340 -693 -13 -37 -33 -81 -43 -98 -21 -32 -148 -317 -262 -584 -38 -91
-101 -232 -138 -315 -37 -82 -103 -231 -145 -330 -42 -99 -104 -238 -137 -310
-33 -72 -69 -149 -79 -172 l-18 -43 23 0 c26 0 51 46 138 250 22 52 48 111 58
130 23 45 130 287 130 294 0 3 49 115 109 248 60 134 112 254 116 267 4 13 17
40 28 60 18 30 22 32 25 16 8 -46 65 -214 92 -268 36 -72 89 -145 138 -189 45
-41 151 -78 221 -78 80 0 406 62 557 105 44 13 138 38 208 54 71 17 148 40
173 51 25 11 49 20 54 20 5 0 9 -28 9 -63 0 -74 29 -216 61 -302 42 -113 206
-238 347 -266 88 -17 323 -6 422 20 41 11 93 24 115 30 22 6 103 22 180 36 77
15 266 51 420 80 338 66 690 127 920 159 295 42 467 65 565 76 210 23 250 31
250 51 0 24 -16 24 -138 0 -53 -11 -155 -27 -227 -36 -617 -77 -947 -134
-1715 -295 -407 -86 -442 -91 -593 -97 -268 -10 -394 44 -480 208 -67 128 -82
189 -82 334 l0 130 39 73 c21 40 47 77 56 82 19 10 83 116 148 245 129 259
328 547 613 892 118 143 133 154 266 199 142 48 290 27 497 -70 165 -77 294
-179 355 -281 19 -31 50 -98 69 -148 28 -75 35 -110 40 -193 8 -161 6 -164
-91 -212 -45 -23 -112 -50 -150 -61 -51 -15 -75 -29 -100 -57 -55 -63 -61 -69
-112 -109 -27 -22 -72 -61 -100 -87 -27 -25 -90 -76 -140 -112 -49 -36 -96
-70 -102 -76 -7 -6 -21 -14 -30 -18 -59 -25 -95 -58 -133 -124 -22 -39 -39
-76 -37 -81 3 -10 20 15 73 103 12 21 45 49 81 70 84 49 184 122 282 204 l84
71 186 3 c234 4 425 -17 836 -92 337 -62 439 -76 537 -76 50 0 68 4 68 13 0
10 -25 14 -97 16 -116 2 -115 2 -360 49 -162 30 -193 39 -193 53 0 10 4 20 9
23 18 12 70 175 81 255 16 118 1 183 -53 235 l-41 39 54 46 c93 76 259 252
304 321 109 164 154 302 163 506 6 144 -7 267 -38 349 -24 64 -24 74 6 170 35
113 33 149 -9 191 -19 19 -40 34 -47 34 -7 0 4 -17 24 -38 20 -21 37 -42 37
-47 1 -6 -12 -55 -27 -110 l-27 -100 -166 -1 c-226 -1 -503 -35 -795 -99 -171
-37 -240 -56 -512 -146 -150 -49 -267 -82 -306 -86 -99 -9 -185 12 -362 86
-207 89 -245 97 -322 71 -74 -26 -461 -218 -531 -265 -30 -19 -60 -35 -67 -35
-7 0 -18 -6 -24 -14 -6 -7 -51 -37 -99 -67 -252 -153 -520 -344 -717 -512
-148 -126 -376 -359 -437 -446 -31 -43 -28 -18 6 54 17 39 63 140 101 225 74
165 268 553 368 735 33 61 80 148 105 195 25 47 56 102 69 122 12 21 23 40 23
43 0 3 30 55 67 116 67 111 67 111 101 106 18 -3 46 -19 62 -34 16 -15 58 -43
94 -61 l66 -34 44 25 c26 15 71 28 108 32 61 7 133 36 191 77 22 16 27 27 27
59 0 43 -7 41 78 23 15 -3 52 -24 82 -47 146 -111 195 -131 273 -113 45 11 62
11 92 0 20 -6 39 -15 42 -18 3 -3 -9 -28 -26 -56 -17 -28 -31 -58 -31 -68 1
-11 7 -6 18 15 9 17 33 48 52 69 19 21 37 44 40 52 3 7 36 26 72 41 36 16 80
38 98 51 17 12 97 44 177 72 80 27 184 68 232 92 107 53 148 63 286 70 388 20
806 58 792 72 -2 2 -66 -2 -143 -10 -160 -17 -284 -25 -284 -19 0 2 12 9 28
16 47 21 422 240 418 244 -3 4 -223 -118 -286 -157 -8 -5 -28 -17 -45 -25 -57
-30 3 12 103 72 50 30 92 57 92 60 0 5 -25 -8 -160 -85 -63 -36 -134 -76 -158
-89 -24 -14 -41 -27 -38 -30 3 -3 16 1 28 9 27 17 58 29 58 23 0 -11 -80 -43
-122 -48 -27 -4 -48 -5 -48 -3 0 3 57 34 128 71 70 36 134 73 142 82 8 8 -43
-15 -113 -52 -71 -37 -130 -65 -133 -63 -2 3 34 24 81 48 136 69 91 57 -69
-20 -81 -38 -155 -70 -164 -69 -9 0 21 19 68 41 47 22 92 46 100 52 21 18 139
60 147 52 3 -3 21 3 38 14 18 11 47 22 64 24 17 2 36 8 43 14 11 8 116 52 126
52 2 0 0 -6 -4 -12 -5 -7 3 -5 16 5 41 29 111 59 125 53 8 -3 18 1 22 8 7 11
171 95 215 109 22 8 31 -6 58 -83 40 -116 44 -120 100 -120 58 0 94 -14 108
-44 6 -11 13 -66 17 -121 4 -69 10 -105 21 -115 15 -16 15 -8 -1 149 -13 118
-42 151 -133 151 l-49 0 -39 92 c-21 51 -40 96 -42 100 -2 3 49 32 112 63 63
30 128 69 145 84 28 26 31 35 31 90 0 69 -16 60 143 87 l97 16 0 45 c0 32 -11
68 -40 126 -22 45 -80 198 -129 339 -50 142 -112 311 -139 375 -27 65 -70 170
-95 233 -25 63 -63 154 -85 201 -22 47 -43 96 -47 109 -31 96 -275 562 -368
700 -54 81 -88 104 -174 120 -37 7 -74 17 -82 23 -22 18 -78 111 -125 209 -77
161 -186 399 -186 406 0 4 -7 20 -16 37 -19 37 -44 99 -134 340 -176 470 -246
626 -348 780 -61 91 -76 106 -188 180 -95 63 -168 101 -243 126 -67 23 -146
35 -137 21 3 -6 1 -14 -5 -18 -7 -4 -9 -3 -5 4 10 17 -13 25 -31 10 -12 -9
-15 -9 -9 0 4 6 3 12 -1 12 -5 0 -15 -6 -22 -12 -10 -9 -12 -10 -7 -1 7 13
-37 24 -84 22 -14 -1 -47 2 -74 6 -36 6 -47 5 -42 -3 4 -6 0 -22 -9 -35 -8
-13 -12 -27 -8 -30 3 -4 2 -7 -3 -8 -5 0 -17 -2 -27 -4 -9 -2 -14 1 -11 7 3 5
9 7 12 4 3 -3 14 8 24 25 22 35 20 38 -25 54 -33 11 -191 18 -217 9z m210 -50
c0 -2 -9 0 -20 6 -11 6 -20 13 -20 16 0 2 9 0 20 -6 11 -6 20 -13 20 -16z
m-126 7 c-5 -6 -9 -7 -34 -10 -7 -1 -7 -7 -1 -20 8 -14 7 -22 -3 -30 -9 -8
-16 -8 -20 -2 -4 5 -1 13 5 16 5 4 8 13 5 21 -3 7 2 17 10 22 17 10 47 12 38
3z m41 -1 c3 -6 -1 -7 -9 -4 -18 7 -21 14 -7 14 6 0 13 -4 16 -10z m462 -29
c0 -11 -5 -18 -9 -15 -4 3 -5 11 -1 19 7 21 12 19 10 -4z m-602 -13 c5 -4 0
-6 -12 -6 -13 1 -19 7 -16 15 3 8 8 10 12 6 3 -4 10 -11 16 -15z m155 -3 c14
-18 13 -19 -1 -8 -9 7 -19 10 -23 6 -4 -4 -4 1 0 10 3 10 7 17 8 15 1 -2 8
-12 16 -23z m205 6 c3 -5 2 -12 -3 -15 -5 -3 -9 1 -9 9 0 17 3 19 12 6z m79
-12 c-3 -5 -10 -7 -15 -3 -5 3 -7 10 -3 15 3 5 10 7 15 3 5 -3 7 -10 3 -15z
m43 8 c0 -8 -6 -14 -14 -14 -9 0 -10 4 -2 14 6 7 12 13 14 13 1 0 2 -6 2 -13z
m38 4 c3 -5 2 -12 -3 -15 -5 -3 -9 1 -9 9 0 17 3 19 12 6z m-595 -5 c0 -2 -7
-7 -16 -10 -8 -3 -12 -2 -9 4 6 10 25 14 25 6z m271 -13 c13 -16 12 -17 -3 -4
-10 7 -18 15 -18 17 0 8 8 3 21 -13z m-264 -10 c-4 -3 -1 -13 6 -22 11 -14 10
-14 -5 -2 -16 12 -16 31 -1 31 4 0 3 -3 0 -7z m184 -16 c-10 -9 -11 -8 -5 6 3
10 9 15 12 12 3 -3 0 -11 -7 -18z m-47 -18 c-3 -5 -10 -7 -15 -3 -5 3 -7 10
-3 15 3 5 10 7 15 3 5 -3 7 -10 3 -15z m211 0 c-4 -5 -12 -9 -18 -8 -9 0 -8 2
1 6 6 2 9 10 6 15 -4 7 -2 8 5 4 6 -4 9 -12 6 -17z m125 17 c0 -2 -8 -10 -17
-17 -16 -13 -17 -12 -4 4 13 16 21 21 21 13z m-583 -41 c0 -8 -4 -12 -9 -9 -5
3 -6 10 -3 15 9 13 12 11 12 -6z m79 -14 c-13 -12 -18 -13 -28 -2 -11 10 -9
11 6 5 12 -5 17 -4 13 3 -3 5 1 10 9 10 13 0 13 -2 0 -16z m158 11 c3 -5 -1
-9 -9 -9 -8 0 -12 4 -9 9 3 4 7 8 9 8 2 0 6 -4 9 -8z m-208 -22 c0 -12 -4 -16
-9 -11 -5 5 -6 14 -3 20 10 15 12 14 12 -9z m1125 -53 c124 -106 241 -286 329
-507 65 -161 141 -372 137 -376 -4 -5 -201 397 -247 506 -36 83 -70 144 -77
136 -3 -2 1 -14 7 -26 20 -37 3 -34 -21 3 -21 31 -27 34 -56 30 -21 -4 -42 0
-59 12 -25 16 -26 19 -21 98 l5 82 -45 53 c-24 28 -40 52 -35 52 5 0 42 -28
83 -63z m-1205 27 c1 -9 0 -13 -4 -10 -3 4 -7 14 -8 22 -1 9 0 13 4 10 3 -4 7
-14 8 -22z m-99 4 c-19 -7 -26 -15 -23 -25 3 -8 2 -12 -2 -9 -5 3 -20 -8 -33
-25 -13 -17 -38 -47 -55 -67 -48 -58 -124 -168 -124 -181 0 -14 -11 -14 -33 3
-19 15 -17 22 36 104 61 94 196 213 241 211 18 0 17 -2 -7 -11z m70 -3 c0 -8
-4 -12 -9 -9 -5 3 -6 10 -3 15 9 13 12 11 12 -6z m-51 -23 c0 -10 -6 -19 -13
-19 -8 0 -9 6 -2 19 5 10 11 18 12 18 2 0 3 -8 3 -18z m866 -197 c3 14 8 7 16
-25 l11 -45 -5 60 c-8 97 12 43 25 -67 14 -122 14 -179 1 -158 -7 11 -10 -6
-10 -55 -1 -70 -1 -70 -15 -35 -7 19 -23 103 -35 185 -12 83 -27 180 -34 217
-19 100 -4 94 20 -9 12 -52 23 -80 26 -68z m-605 25 c66 -126 85 -159 150
-260 54 -83 130 -182 146 -188 4 -2 7 -7 7 -12 0 -4 -17 -2 -37 6 -48 17 -167
17 -215 0 -20 -7 -58 -29 -85 -49 l-49 -36 -2 65 c-2 56 1 69 24 99 26 34 30
61 4 30 -29 -34 -33 -15 -26 118 13 258 19 338 26 330 4 -4 30 -51 57 -103z
m-187 -42 c0 -111 -3 -139 -12 -130 -21 21 -15 272 7 272 3 0 5 -64 5 -142z
m444 32 c2 0 1 12 -2 27 l-5 26 30 -21 c41 -29 60 -74 41 -99 -22 -31 -41 -21
-80 47 -43 73 -52 115 -13 57 14 -20 27 -37 29 -37z m-427 -77 c-2 -27 -3 -5
-3 47 0 52 1 74 3 48 2 -27 2 -69 0 -95z m-193 51 c-10 -36 -18 -116 -21 -205
-5 -124 -2 -157 15 -225 25 -99 53 -161 97 -211 39 -45 50 -41 32 13 -8 21
-17 55 -21 75 -6 34 -5 37 21 42 16 3 37 8 49 12 18 6 22 2 27 -24 4 -17 2
-43 -3 -57 -16 -41 -11 -62 6 -24 12 27 17 32 24 20 5 -8 10 -33 10 -55 1 -36
2 -38 14 -22 12 15 14 12 18 -28 3 -24 13 -56 22 -70 21 -32 70 -57 104 -53
24 4 23 5 -15 16 -42 13 -93 61 -93 88 0 22 32 51 63 56 21 4 27 1 27 -12 0
-9 8 -24 18 -34 18 -15 20 -15 34 1 8 10 18 26 21 35 10 27 67 4 67 -27 0 -41
-18 -74 -52 -95 -23 -14 -28 -20 -15 -20 52 0 87 55 87 137 0 92 -60 148 -142
133 -44 -8 -95 -51 -83 -69 5 -9 10 -9 20 -1 17 14 57 10 62 -6 2 -6 -17 -17
-43 -24 -49 -14 -63 -7 -64 31 0 50 171 140 268 140 63 1 130 -29 167 -73 21
-24 24 -37 19 -64 -8 -43 7 -44 25 -1 20 49 20 99 0 127 -18 25 -122 280 -117
285 2 2 32 -44 68 -102 36 -58 95 -145 133 -195 60 -81 68 -97 77 -156 21
-142 40 -445 46 -726 l6 -292 -40 -26 c-107 -71 -494 -248 -543 -248 -26 0
-79 27 -79 41 0 5 -35 47 -78 92 -177 186 -205 221 -276 363 -62 124 -91 243
-46 189 30 -36 28 -10 -5 55 -28 56 -32 71 -21 77 21 11 46 63 46 94 0 14 -7
49 -15 77 -14 46 -21 54 -60 72 -24 11 -49 20 -55 20 -15 0 -30 44 -30 86 0
29 3 34 18 30 58 -17 72 -18 72 -3 0 17 -37 43 -74 53 -31 8 -32 22 -11 174
18 123 62 275 112 380 35 74 114 203 120 196 2 -2 -4 -30 -13 -62z m424 30
c26 -40 38 -40 23 0 -21 54 7 23 47 -53 50 -93 53 -109 11 -61 -27 32 -30 33
-23 10 4 -14 9 -32 12 -40 11 -30 -32 17 -65 72 -52 87 -57 152 -5 72z m915 9
c8 -16 18 -39 22 -52 6 -20 4 -23 -9 -18 -12 5 -16 0 -17 -16 0 -17 -3 -14
-13 13 -11 30 -11 100 0 100 2 0 10 -12 17 -27z m-276 -193 c3 -36 3 -63 0
-60 -6 5 -38 176 -36 195 2 29 31 -79 36 -135z m-947 -50 c7 -47 21 -113 31
-147 l17 -62 -31 -40 c-17 -23 -34 -41 -38 -41 -17 0 -25 261 -12 395 l7 70 7
-45 c4 -25 12 -83 19 -130z m-314 113 c34 -22 35 -48 5 -84 l-27 -32 -43 23
c-36 21 -41 28 -36 50 4 14 13 35 21 48 16 25 37 23 80 -5z m-88 -195 c33 -12
34 -14 27 -52 -3 -22 -8 -42 -10 -45 -3 -2 -24 0 -47 5 -41 9 -43 11 -40 44 2
31 17 60 30 60 3 0 21 -6 40 -12z m632 -208 c-33 -26 -49 -26 -19 0 13 10 29
19 34 19 6 1 -1 -8 -15 -19z m77 -101 c7 -9 28 -20 47 -23 20 -4 38 -10 40
-15 3 -5 -12 -5 -34 -1 -34 6 -90 47 -90 66 0 9 24 -9 37 -27z m925 -498 c54
-163 54 -170 1 -171 -13 0 -23 -3 -23 -8 0 -4 -20 -32 -44 -61 -42 -50 -50
-77 -23 -68 6 2 32 -38 58 -89 26 -51 56 -106 68 -123 12 -16 21 -32 21 -36 0
-14 87 -107 120 -128 19 -11 60 -26 91 -32 l57 -10 -53 -80 c-29 -44 -103
-174 -165 -290 -121 -227 -195 -345 -259 -415 l-42 -45 5 315 c3 173 7 326 9
340 3 14 7 99 11 190 4 91 9 176 11 190 2 14 7 186 10 382 3 204 9 369 15 385
35 95 32 96 58 -3 13 -49 46 -158 74 -243z m-1456 47 c14 -15 15 -20 4 -33
-18 -22 -26 -11 -55 74 -30 89 -22 116 11 36 13 -32 31 -67 40 -77z m11 34
c-3 -12 -10 -3 -25 28 -30 63 -27 84 4 32 14 -23 24 -50 21 -60z m2163 -372
c0 -5 -2 -10 -4 -10 -3 0 -8 5 -11 10 -3 6 -1 10 4 10 6 0 11 -4 11 -10z m-50
-75 c13 -14 21 -25 18 -25 -2 0 -15 11 -28 25 -13 14 -21 25 -18 25 2 0 15
-11 28 -25z m101 8 c13 -16 12 -17 -3 -4 -10 7 -18 15 -18 17 0 8 8 3 21 -13z
m34 -43 c3 -5 2 -10 -4 -10 -5 0 -13 5 -16 10 -3 6 -2 10 4 10 5 0 13 -4 16
-10z m-1201 -580 c-6 -57 -8 -62 -17 -40 -37 92 -74 168 -89 189 -25 33 -24
35 21 56 22 10 50 29 63 42 l23 25 3 -104 c2 -56 0 -132 -4 -168z m-587 112
c12 -9 54 -70 93 -136 38 -65 81 -131 95 -148 31 -37 31 -49 0 -78 l-25 -23
-26 24 c-27 24 -184 336 -184 364 0 20 20 19 47 -3z m541 -169 c21 -71 35
-184 23 -196 -14 -14 -91 16 -133 51 -28 23 -30 24 -20 5 16 -30 59 -58 110
-73 l42 -13 0 -175 c0 -194 3 -187 -67 -139 -70 47 -132 203 -118 296 4 25 9
57 10 71 9 64 25 111 46 138 23 28 78 72 90 72 3 0 11 -17 17 -37z m219 -528
c0 -8 -4 -12 -9 -9 -5 3 -6 10 -3 15 9 13 12 11 12 -6z m-15 -83 c-7 -2 -9 -9
-5 -15 3 -7 2 -8 -2 -4 -16 14 -14 36 3 29 10 -4 12 -7 4 -10z m32 -50 c3 -5
-1 -9 -9 -9 -8 0 -12 4 -9 9 3 4 7 8 9 8 2 0 6 -4 9 -8z m3 -47 c0 -8 -4 -12
-9 -9 -5 3 -6 10 -3 15 9 13 12 11 12 -6z m23 -67 c0 -4 -4 -8 -9 -8 -6 0 -12
4 -15 8 -3 5 1 9 9 9 8 0 15 -4 15 -9z m7 -35 c-4 -3 -1 -13 6 -22 11 -14 10
-14 -5 -2 -16 12 -16 31 -1 31 4 0 3 -3 0 -7z m1858 -918 c150 -24 139 -19
173 -93 17 -37 34 -88 37 -113 7 -44 6 -47 -32 -76 -68 -53 -185 -105 -453
-203 -238 -87 -430 -161 -590 -226 -231 -94 -408 -159 -575 -210 -27 -9 -57
-22 -65 -29 -24 -22 -160 -73 -338 -127 -167 -51 -208 -68 -162 -68 20 0 15
-5 -24 -26 -35 -19 -55 -24 -75 -19 l-26 8 26 7 c75 21 89 55 17 38 -57 -13
-89 -7 -178 35 -41 19 -82 37 -90 40 -28 10 46 7 106 -4 44 -8 72 -8 112 1 71
16 66 29 -8 23 -35 -3 -71 -1 -83 5 -22 10 -253 40 -361 47 -52 3 -63 7 -95
39 -42 42 -39 43 78 22 52 -10 85 -11 110 -4 21 6 82 7 149 3 74 -5 112 -4
108 3 -3 5 -27 12 -53 15 -26 3 -49 10 -51 16 -5 14 -71 14 -145 1 -48 -9 -75
-7 -184 14 -210 42 -297 61 -310 69 -18 11 -16 27 2 27 8 0 15 4 15 9 0 22 72
31 241 31 l177 0 119 44 c99 37 165 59 251 82 19 5 14 24 -7 24 -10 0 -48 16
-85 35 -63 32 -74 35 -159 35 -127 1 -203 36 -195 91 3 21 6 22 153 23 112 1
179 7 266 24 l116 23 119 -68 c232 -130 236 -133 285 -133 44 0 163 35 284 85
80 32 299 115 580 218 226 83 232 86 338 166 60 45 123 88 140 95 43 19 227
20 342 1z m-3291 -440 c27 -14 57 -25 66 -25 15 0 104 -33 161 -60 16 -7 31
-26 38 -49 7 -20 15 -42 18 -50 10 -24 -116 -6 -134 19 -23 33 -65 48 -142 53
-47 3 -76 9 -82 18 -13 21 -11 93 3 107 16 16 15 16 72 -13z m996 -135 c22
-11 40 -22 40 -24 0 -3 -23 -12 -51 -21 -38 -13 -53 -14 -59 -6 -4 7 -19 13
-34 15 -15 1 -32 8 -38 14 -39 39 75 56 142 22z m-890 -27 c23 -13 21 -14 -35
-8 -76 7 -105 15 -105 27 0 13 109 -1 140 -19z m710 5 c0 -10 -25 -13 -97 -11
-54 1 -99 2 -101 2 -2 1 0 6 3 11 10 15 195 13 195 -2z m-810 -68 c82 -16 98
-25 92 -55 -4 -22 -8 -25 -26 -20 -81 26 -128 35 -179 35 -56 0 -58 1 -51 23
4 12 11 25 16 28 11 7 81 2 148 -11z m700 -20 c12 -7 12 -13 4 -27 -6 -10 -14
-17 -18 -15 -3 1 -49 2 -101 2 -85 0 -95 2 -95 18 0 10 3 22 7 25 10 11 186 8
203 -3z m-827 -44 c8 -9 39 -16 72 -18 32 -2 60 -8 62 -13 3 -9 -40 -41 -59
-44 -50 -8 -68 -15 -64 -26 7 -19 -61 -41 -136 -44 -59 -2 -68 0 -82 21 -17
23 -21 66 -8 83 27 39 66 55 133 55 46 0 72 -5 82 -14z m2692 -66 c-3 -5 -11
-10 -16 -10 -6 0 -7 5 -4 10 3 6 11 10 16 10 6 0 7 -4 4 -10z m-290 -18 c-24
-21 -136 -62 -166 -61 -27 0 -15 7 61 34 103 35 119 40 105 27z m90 -22 c-3
-5 -11 -10 -16 -10 -6 0 -7 5 -4 10 3 6 11 10 16 10 6 0 7 -4 4 -10z m-45 -20
c-8 -5 -19 -10 -25 -10 -5 0 -3 5 5 10 8 5 20 10 25 10 6 0 3 -5 -5 -10z
m-2236 -85 c-31 -41 -65 -77 -75 -80 -14 -5 -17 -10 -10 -18 6 -8 5 -18 -3
-30 -18 -23 -26 -21 -26 6 0 18 -13 29 -65 55 -73 36 -82 48 -68 95 8 31 11
32 68 34 33 1 96 6 140 10 44 5 83 8 87 6 4 -2 -18 -37 -48 -78z m206 49 c19
-3 65 -15 103 -26 55 -17 65 -23 56 -34 -6 -8 -21 -14 -33 -14 -17 0 -18 2 -6
10 8 5 10 10 4 10 -6 0 -17 -7 -24 -15 -8 -9 -30 -15 -57 -15 -24 0 -75 -5
-113 -11 -114 -17 -118 -14 -64 54 40 52 49 58 72 53 15 -3 43 -9 62 -12z
m220 -106 c0 -5 -6 -8 -14 -5 -8 3 -20 0 -26 -8 -6 -7 -57 -36 -115 -64 -101
-50 -106 -51 -194 -51 -130 0 -141 7 -96 65 27 36 35 38 285 51 62 3 113 11
125 18 21 14 35 12 35 -6z m-56 -90 c-42 -51 -121 -118 -156 -134 l-37 -16
-68 38 -68 39 80 5 c68 5 93 12 164 48 97 48 112 51 85 20z m188 -628 c159
-45 483 -381 519 -537 6 -31 4 -41 -20 -72 -120 -157 -187 -255 -284 -416 -47
-77 -101 -171 -120 -210 -19 -38 -43 -77 -53 -86 -48 -42 -357 -172 -536 -225
-65 -19 -92 -22 -162 -17 -79 5 -87 4 -114 -18 -15 -13 -61 -39 -100 -58 -68
-33 -89 -51 -59 -51 17 0 157 68 179 87 12 11 33 14 75 11 85 -6 188 18 388
89 39 13 79 29 90 33 11 5 45 19 75 31 30 13 74 33 98 46 23 13 42 20 42 16 0
-11 -53 -90 -102 -153 -15 -19 -38 -58 -53 -87 -30 -61 -57 -82 -143 -112 -76
-26 -319 -86 -387 -96 -27 -4 -79 -14 -115 -22 -361 -79 -425 -86 -497 -53
-95 43 -192 166 -248 315 -28 72 -55 195 -55 245 0 43 70 202 92 208 10 2 18
8 18 12 0 17 209 252 330 371 230 227 485 422 845 649 83 52 160 101 170 107
21 13 63 11 127 -7z m2495 -885 c52 -58 52 -203 -1 -354 -37 -105 -56 -141
-76 -141 -27 0 -253 40 -259 45 -9 10 44 57 82 72 37 15 50 33 23 33 -28 0
-63 -19 -110 -59 -49 -43 -70 -48 -149 -35 l-38 7 23 24 c21 23 27 25 91 18
70 -7 94 7 35 21 -87 19 -110 13 -164 -38 -29 -27 -36 -29 -80 -23 -27 3 -50
8 -52 10 -4 4 63 40 83 45 26 7 64 44 56 54 -14 17 -16 103 -3 119 7 8 30 17
52 21 60 9 126 33 210 75 79 40 194 114 205 131 10 16 47 2 72 -25z m-569
-273 l3 -51 -38 -6 c-106 -19 -148 -35 -178 -69 -28 -33 -34 -35 -107 -39 -43
-2 -80 -2 -83 1 -8 9 117 131 151 147 17 8 64 22 103 30 40 8 84 22 99 30 39
21 47 14 50 -43z m-52 -87 c-15 -8 -33 -15 -39 -15 -5 0 -25 -11 -43 -25 -50
-38 -89 -30 -45 9 19 18 98 43 136 45 16 1 14 -2 -9 -14z"/>
<path d="M16195 7419 c-38 -21 -83 -44 -100 -49 -30 -10 -30 -10 5 -5 42 6
104 37 145 70 40 33 33 31 -50 -16z"/>
<path d="M16540 7340 c0 -6 5 -20 11 -31 14 -27 2 -59 -22 -59 -14 0 -19 7
-19 25 0 14 -4 25 -10 25 -14 0 -13 -43 2 -58 19 -19 46 -14 64 13 14 21 14
30 4 55 -13 32 -30 49 -30 30z"/>
<path d="M16290 7203 c-17 -26 -30 -57 -30 -70 0 -28 -16 -30 -25 -3 -3 11
-15 20 -25 20 -28 0 -171 -63 -305 -134 l-120 -64 1 -45 c1 -103 99 -234 222
-296 89 -45 156 -43 252 5 89 46 146 102 190 190 32 62 35 76 35 153 0 73 -4
95 -28 146 -29 61 -100 145 -124 145 -8 0 -27 -21 -43 -47z m110 -68 c66 -34
86 -192 37 -299 -62 -134 -149 -208 -269 -228 -56 -9 -69 -8 -120 11 -31 12
-80 42 -108 67 -43 40 -50 51 -50 83 0 66 54 195 103 249 22 24 112 70 176 91
28 9 37 8 58 -9 35 -27 40 -26 57 15 13 31 19 35 51 35 20 0 49 -7 65 -15z"/>
<path d="M17157 6215 c-66 -50 -183 -118 -203 -118 -20 0 -42 -28 -49 -62 -6
-29 -6 -29 14 6 15 26 33 41 68 54 63 24 183 99 219 136 41 42 18 35 -49 -16z"/>
<path d="M15632 6450 c0 -14 2 -19 5 -12 2 6 2 18 0 25 -3 6 -5 1 -5 -13z"/>
<path d="M17484 6329 c9 -69 36 -171 49 -184 6 -7 7 -1 3 15 -21 76 -44 195
-40 201 2 4 -1 11 -7 15 -9 5 -10 -7 -5 -47z"/>
<path d="M15643 6250 c0 -36 2 -50 4 -32 2 17 2 47 0 65 -2 17 -4 3 -4 -33z"/>
<path d="M18300 6186 c0 -3 7 -37 15 -75 56 -267 60 -619 9 -881 -5 -25 -4
-32 4 -25 35 32 61 396 43 599 -13 151 -52 386 -63 386 -4 0 -8 -2 -8 -4z"/>
<path d="M15652 6110 c0 -19 2 -27 5 -17 2 9 2 25 0 35 -3 9 -5 1 -5 -18z"/>
<path d="M15650 6029 c0 -16 4 -28 9 -25 8 5 3 56 -5 56 -2 0 -4 -14 -4 -31z"/>
<path d="M15663 5925 c0 -33 2 -45 4 -27 2 18 2 45 0 60 -2 15 -4 0 -4 -33z"/>
<path d="M15673 5795 c0 -38 2 -53 4 -32 2 20 2 52 0 70 -2 17 -4 1 -4 -38z"/>
<path d="M15683 5655 c-1 -33 2 -98 6 -145 l8 -85 0 75 c0 41 -3 107 -7 145
l-7 70 0 -60z"/>
<path d="M18558 5643 c8 -107 76 -393 94 -393 5 0 6 5 3 11 -18 27 -85 347
-85 400 0 22 -4 39 -8 39 -5 0 -7 -26 -4 -57z"/>
<path d="M17910 5663 c4 -16 17 -55 28 -88 11 -33 26 -80 32 -105 25 -99 42
-151 47 -147 11 11 -94 367 -108 367 -4 0 -4 -12 1 -27z"/>
<path d="M16200 5525 c0 -5 17 -50 38 -100 21 -49 56 -154 78 -232 21 -79 43
-143 47 -143 5 0 6 7 3 16 -3 8 -15 52 -27 97 -33 132 -87 289 -114 332 -13
22 -25 36 -25 30z"/>
<path d="M15702 5375 c-1 -22 3 -58 7 -80 l9 -40 0 50 c0 28 -4 64 -8 80 -7
29 -8 28 -8 -10z"/>
<path d="M17720 5206 c30 -31 59 -56 64 -56 13 0 -73 88 -99 102 -11 6 5 -15
35 -46z"/>
<path d="M15722 5200 c-1 -25 3 -63 7 -85 l9 -40 0 35 c0 19 -3 58 -8 85 l-7
50 -1 -45z"/>
<path d="M17578 5073 c7 -3 16 -2 19 1 4 3 -2 6 -13 5 -11 0 -14 -3 -6 -6z"/>
<path d="M15745 5020 c5 -59 27 -158 31 -145 2 6 -5 51 -16 100 -11 50 -18 70
-15 45z"/>
<path d="M18726 5038 c95 -158 278 -431 302 -450 21 -17 22 -19 -108 177 -59
88 -124 188 -145 223 -21 34 -42 62 -47 62 -5 0 -6 -6 -2 -12z"/>
<path d="M15791 4810 c0 -8 4 -22 9 -30 12 -18 12 -2 0 25 -6 13 -9 15 -9 5z"/>
<path d="M16216 4800 c4 -14 13 -36 21 -50 l14 -25 -7 25 c-4 14 -13 36 -21
50 l-14 25 7 -25z"/>
<path d="M16250 4717 c0 -30 122 -228 161 -262 13 -11 7 0 -13 25 -31 40 -108
164 -108 175 0 3 -9 19 -20 37 -11 18 -20 29 -20 25z"/>
<path d="M17440 4625 c38 -46 241 -180 368 -243 89 -44 233 -92 273 -91 20 1
26 3 14 6 -49 11 -186 59 -245 86 -80 36 -204 110 -330 195 -52 36 -88 57 -80
47z"/>
<path d="M17105 4502 c17 -12 65 -47 109 -78 43 -31 76 -51 72 -45 -9 14 -174
131 -195 138 -9 3 -2 -4 14 -15z"/>
<path d="M16671 4494 c0 -5 27 -52 59 -104 89 -144 188 -312 202 -345 25 -56
49 -97 55 -91 3 3 -22 57 -56 121 -78 148 -262 443 -260 419z"/>
<path d="M17485 4085 c-81 -17 -50 -17 55 -1 51 9 69 14 45 14 -22 0 -67 -6
-100 -13z"/>
<path d="M17193 3968 c-18 -13 -35 -29 -38 -36 -2 -7 13 2 35 19 36 29 45 39
37 39 -1 0 -17 -10 -34 -22z"/>
<path d="M18625 3660 c-3 -6 1 -7 9 -4 18 7 21 14 7 14 -6 0 -13 -4 -16 -10z"/>
<path d="M18755 3436 c-27 -19 -68 -43 -90 -55 -22 -11 -34 -21 -26 -21 18 0
120 55 156 85 43 35 19 29 -40 -9z"/>
<path d="M18840 3443 c0 -5 -10 -13 -23 -19 -79 -38 -148 -79 -138 -82 12 -4
125 56 162 87 13 11 18 20 12 21 -7 0 -13 -3 -13 -7z"/>
<path d="M17660 3298 c-318 -23 -789 -89 -842 -118 -11 -6 -27 -6 -43 0 -33
12 -38 12 -30 1 23 -38 384 -104 544 -100 56 2 45 4 -89 19 -143 16 -275 37
-335 54 -27 8 -46 15 -42 15 4 1 40 8 80 16 239 48 633 94 982 114 l140 9
-130 -1 c-71 0 -177 -4 -235 -9z"/>
<path d="M18238 3253 c6 -2 18 -2 25 0 6 3 1 5 -13 5 -14 0 -19 -2 -12 -5z"/>
<path d="M18040 3224 c-179 -34 -424 -88 -414 -91 5 -1 142 24 304 56 162 33
282 59 265 59 -16 0 -86 -11 -155 -24z"/>
<path d="M17588 3123 c7 -3 16 -2 19 1 4 3 -2 6 -13 5 -11 0 -14 -3 -6 -6z"/>
<path d="M17548 3113 c7 -3 16 -2 19 1 4 3 -2 6 -13 5 -11 0 -14 -3 -6 -6z"/>
</g>
</svg>
