<?xml version='1.0' encoding='iso-8859-1'?>
<svg version="1.1" xmlns="http://www.w3.org/2000/svg" viewBox="0 0 137.144 137.144" xmlns:xlink="http://www.w3.org/1999/xlink" enable-background="new 0 0 137.144 137.144">
  <g>
    <g>
      <path fill="#fff" d="m68.572,27.429c-22.723,0-41.143,18.42-41.143,41.143s18.42,41.143 41.143,41.143c22.723,0 41.143-18.42 41.143-41.143s-18.42-41.143-41.143-41.143zm0,61.714c-11.361,0-20.572-9.21-20.572-20.571 0.001-11.362 9.211-20.572 20.572-20.572 11.361,0 20.571,9.21 20.571,20.572 0.001,11.361-9.209,20.571-20.571,20.571zm41.144-89.143h-82.287c-15.149,0-27.429,12.28-27.429,27.429v82.286c0,15.149 12.28,27.429 27.429,27.429h82.287c15.149,0 27.429-12.28 27.429-27.429v-82.286c-0.001-15.149-12.281-27.429-27.429-27.429zm13.714,102.858c0,11.362-9.21,20.572-20.572,20.572h-68.572c-11.361,0-20.572-9.21-20.572-20.572v-68.572c0-11.361 9.21-20.571 20.572-20.571h68.572c11.362,0 20.572,9.21 20.572,20.571v68.572zm-54.858-48.001c-7.574,0-13.714,6.14-13.714,13.715s6.14,13.714 13.714,13.714c7.574,0 13.714-6.14 13.714-13.714s-6.14-13.715-13.714-13.715zm0,20.572c-3.787,0-6.857-3.07-6.857-6.857 0-3.787 3.07-6.858 6.857-6.858 3.787,0 6.857,3.07 6.857,6.858 0,3.786-3.07,6.857-6.857,6.857z"/>
    </g>
  </g>
</svg>
