<svg xmlns="http://www.w3.org/2000/svg" width="362.667" height="352" preserveAspectRatio="xMidYMid meet" version="1.0" viewBox="0 0 272 264"><metadata>Created by potrace 1.16, written by Peter Selinger 2001-2019</metadata><g fill="#20232a" stroke="none"><path d="M1720 2301 c-14 -4 -30 -18 -37 -32 -7 -13 -22 -34 -35 -46 l-23 -21 -90 19 c-206 43 -424 12 -617 -88 -62 -32 -68 -34 -95 -20 -19 10 -44 12 -78 8 l-50 -6 -6 -55 c-4 -32 -24 -91 -48 -144 -86 -183 -210 -510 -289 -761 -90 -287 -142 -478 -145 -528 -2 -48 2 -58 54 -137 66 -101 156 -200 242 -268 97 -77 238 -142 310 -142 40 0 96 -26 119 -55 l19 -25 425 0 425 0 45 26 c24 14 51 35 58 46 8 11 41 32 75 48 33 16 96 52 139 79 43 28 87 51 97 51 83 0 276 223 391 452 35 69 44 98 44 138 0 33 -4 49 -10 45 -7 -4 -44 64 -93 167 -137 291 -423 842 -523 1010 -23 38 -61 77 -117 122 -45 36 -93 79 -106 96 -24 30 -36 34 -81 21z m-840 -534 c0 -21 58 -135 101 -199 42 -62 215 -248 230 -248 4 0 -21 60 -56 133 -57 120 -122 293 -114 302 8 7 222 -194 290 -271 122 -138 122 -139 122 -257 0 -111 -15 -187 -60 -291 -28 -66 -40 -76 -94 -76 -18 0 -28 6 -32 19 -9 34 -73 5 -147 -67 -35 -34 -81 -70 -101 -79 -43 -18 -53 -36 -70 -124 -10 -50 -19 -68 -43 -89 -54 -44 -143 -134 -160 -161 -9 -14 -19 -53 -22 -87 -7 -67 -19 -81 -26 -30 -6 38 15 289 43 523 11 94 23 196 26 228 3 31 9 57 12 57 13 -2 134 -173 146 -208 l13 -37 7 28 c4 16 5 53 1 83 -3 30 -4 54 -2 54 3 0 17 -20 32 -45 33 -58 70 -87 98 -79 46 15 48 56 4 101 -18 18 -39 33 -48 33 -20 0 -62 44 -85 89 -9 19 -20 62 -23 95 -4 43 -15 79 -38 121 -73 132 -83 282 -33 467 9 35 29 45 29 15z m1169 -882 c67 -302 126 -565 132 -583 6 -19 9 -34 7 -36 -1 -1 -19 -14 -39 -28 -44 -32 -221 -128 -237 -128 -7 0 -12 15 -12 34 0 25 -7 39 -22 50 -30 22 -48 20 -48 -4 0 -11 -9 -29 -20 -40 -17 -17 -33 -20 -101 -20 -88 0 -119 10 -119 40 0 27 -22 25 -58 -5 l-29 -24 -22 47 c-29 64 -41 137 -41 251 0 96 0 98 31 127 17 16 51 62 74 103 43 73 88 113 157 142 39 16 35 40 -12 79 -22 18 -42 45 -45 62 -4 16 -13 32 -20 34 -7 3 -60 -20 -118 -50 -57 -31 -108 -56 -112 -56 -5 0 18 27 49 60 49 51 85 112 110 184 6 16 12 10 32 -35 44 -96 142 -178 247 -207 50 -14 47 -2 -9 27 -60 32 -155 170 -154 223 0 7 23 28 50 47 78 53 188 214 191 279 1 42 24 -52 138 -573z m-844 -191 c14 -6 12 -11 -14 -38 -30 -31 -165 -345 -212 -491 -35 -110 -30 -106 -90 -87 -28 9 -54 22 -56 29 -8 22 187 359 272 470 23 30 33 53 29 65 -14 46 20 71 71 52z" transform="translate(0.000000,264.000000) scale(0.100000,-0.100000)"/></g></svg>